<?xml version="1.0" standalone="no"?><svg xmlns="http://www.w3.org/2000/svg" viewBox="0 0 1440 320"><path fill="#ff5500" fill-opacity="1" d="M0,64L30,80C60,96,120,128,180,138.7C240,149,300,139,360,165.3C420,192,480,256,540,240C600,224,660,128,720,90.7C780,53,840,75,900,96C960,117,1020,139,1080,128C1140,117,1200,75,1260,64C1320,53,1380,75,1410,85.3L1440,96L1440,320L1410,320C1380,320,1320,320,1260,320C1200,320,1140,320,1080,320C1020,320,960,320,900,320C840,320,780,320,720,320C660,320,600,320,540,320C480,320,420,320,360,320C300,320,240,320,180,320C120,320,60,320,30,320L0,320Z"></path></svg>